<?xml version="1.0" encoding="utf-8"?>
<!-- Generator: Adobe Illustrator 25.2.3, SVG Export Plug-In . SVG Version: 6.00 Build 0)  -->
<svg version="1.1" id="레이어_1" xmlns="http://www.w3.org/2000/svg" xmlns:xlink="http://www.w3.org/1999/xlink" x="0px"
	 y="0px" viewBox="0 0 24 24" style="enable-background:new 0 0 24 24;" xml:space="preserve">
<style type="text/css">
	.st0{fill:#495056;}
</style>
<g>
	<path class="st0" d="M19,4h-3V3c0-0.6-0.4-1-1-1s-1,0.4-1,1v1h-4V3c0-0.6-0.4-1-1-1S8,2.4,8,3v1H5C3.9,4,3,4.9,3,6v3h18V6
		C21,4.9,20.1,4,19,4z"/>
	<path class="st0" d="M19,10.8H5H4.2H3V19c0,1.1,0.9,2,2,2h14c1.1,0,2-0.9,2-2v-8.2h-1.6H19z"/>
</g>
</svg>
