<?xml version="1.0" encoding="utf-8"?>
<!-- Generator: Adobe Illustrator 25.2.3, SVG Export Plug-In . SVG Version: 6.00 Build 0)  -->
<svg version="1.1" id="레이어_1" xmlns="http://www.w3.org/2000/svg" xmlns:xlink="http://www.w3.org/1999/xlink" x="0px"
	 y="0px" viewBox="0 0 24 24" style="enable-background:new 0 0 24 24;" xml:space="preserve">
<style type="text/css">
	.st0{fill:#495056;}
</style>
<path class="st0" d="M14,5c-0.6,0-1-0.4-1-1s0.4-1,1-1h6c0.3,0,0.5,0.1,0.7,0.3C20.9,3.5,21,3.7,21,4v6c0,0.6-0.4,1-1,1s-1-0.4-1-1
	V6.4l-9.3,9.3c-0.4,0.4-1,0.4-1.4,0c-0.4-0.4-0.4-1,0-1.4L17.6,5H14z M3,7c0-1.1,0.9-2,2-2h5c0.6,0,1,0.4,1,1s-0.4,1-1,1H5v12h12v-5
	c0-0.6,0.4-1,1-1s1,0.4,1,1v5c0,1.1-0.9,2-2,2H5c-1.1,0-2-0.9-2-2V7z"/>
</svg>
