<?xml version="1.0" encoding="utf-8"?>
<!-- Generator: Adobe Illustrator 25.2.3, SVG Export Plug-In . SVG Version: 6.00 Build 0)  -->
<svg version="1.1" id="레이어_1" xmlns="http://www.w3.org/2000/svg" xmlns:xlink="http://www.w3.org/1999/xlink" x="0px"
	 y="0px" viewBox="0 0 24 24" style="enable-background:new 0 0 24 24;" xml:space="preserve">
<style type="text/css">
	.st0{fill:#495056;}
</style>
<g>
	<path class="st0" d="M5,7h1.2C6.6,8.2,7.7,9,9,9s2.4-0.8,2.8-2H19c0.6,0,1-0.4,1-1s-0.4-1-1-1h-7.2C11.4,3.8,10.3,3,9,3
		S6.6,3.8,6.2,5H5C4.4,5,4,5.4,4,6S4.4,7,5,7z"/>
	<path class="st0" d="M19,11h-1.2c-0.4-1.2-1.5-2-2.8-2s-2.4,0.8-2.8,2H5c-0.6,0-1,0.4-1,1s0.4,1,1,1h7.2c0.4,1.2,1.5,2,2.8,2
		s2.4-0.8,2.8-2H19c0.6,0,1-0.4,1-1S19.6,11,19,11z"/>
	<path class="st0" d="M19,17h-7.2c-0.4-1.2-1.5-2-2.8-2s-2.4,0.8-2.8,2H5c-0.6,0-1,0.4-1,1s0.4,1,1,1h1.2c0.4,1.2,1.5,2,2.8,2
		s2.4-0.8,2.8-2H19c0.6,0,1-0.4,1-1S19.6,17,19,17z"/>
</g>
</svg>
