<?xml version="1.0" encoding="utf-8"?>
<!-- Generator: Adobe Illustrator 25.2.3, SVG Export Plug-In . SVG Version: 6.00 Build 0)  -->
<svg version="1.1" id="레이어_1" xmlns="http://www.w3.org/2000/svg" xmlns:xlink="http://www.w3.org/1999/xlink" x="0px"
	 y="0px" viewBox="0 0 16 16" style="enable-background:new 0 0 16 16;" xml:space="preserve">
<style type="text/css">
	.st0{fill:#343A40;}
	.st1{fill:#FFFFFF;}
</style>
<circle class="st0" cx="8" cy="8" r="8"/>
<g>
	<defs>
		<circle id="SVGID_1_" cx="8" cy="8" r="8"/>
	</defs>
	<clipPath id="SVGID_2_">
		<use xlink:href="#SVGID_1_"  style="overflow:visible;"/>
	</clipPath>
</g>
<g>
	<g>
		<g>
			<path class="st1" d="M8.3,9.3C8.2,9.4,8.1,9.4,8,9.4c-0.1,0-0.2,0-0.3-0.1L3.1,6.5v4.6c0,0.3,0.3,0.6,0.6,0.6h8.7
				c0.3,0,0.6-0.3,0.6-0.6V6.5L8.3,9.3z"/>
		</g>
	</g>
	<path class="st1" d="M13,4.8c0-0.3-0.3-0.6-0.6-0.6H3.7c-0.3,0-0.6,0.2-0.6,0.6h0v0.1v0.5v0.2l4.9,3l4.9-3v0L13,4.8L13,4.8L13,4.8z
		"/>
</g>
</svg>
