<?xml version="1.0" encoding="utf-8"?>
<!-- Generator: Adobe Illustrator 25.2.3, SVG Export Plug-In . SVG Version: 6.00 Build 0)  -->
<svg version="1.1" id="레이어_1" xmlns="http://www.w3.org/2000/svg" xmlns:xlink="http://www.w3.org/1999/xlink" x="0px"
	 y="0px" viewBox="0 0 16 16" style="enable-background:new 0 0 16 16;" xml:space="preserve">
<style type="text/css">
	.st0{fill:#ACB5BD;}
	.st1{fill:#FFFFFF;}
</style>
<circle class="st0" cx="8" cy="8" r="8"/>
<g>
	<defs>
		<circle id="SVGID_1_" cx="8" cy="8" r="8"/>
	</defs>
	<clipPath id="SVGID_2_">
		<use xlink:href="#SVGID_1_"  style="overflow:visible;"/>
	</clipPath>
</g>
<g>
	<g>
		<path class="st1" d="M8.3,9.5C8.2,9.6,8.1,9.6,8,9.6c-0.1,0-0.2,0-0.3-0.1L3,6.7v4.6c0,0.3,0.3,0.6,0.6,0.6h8.7
			c0.3,0,0.6-0.3,0.6-0.6V6.7L8.3,9.5z"/>
	</g>
</g>
<path class="st1" d="M12.9,5c0-0.3-0.3-0.6-0.6-0.6H3.7C3.4,4.5,3.1,4.7,3.1,5h0v0.1v0.5v0.2l4.9,3l4.9-3v0L12.9,5L12.9,5L12.9,5z"
	/>
</svg>
