<svg width="24" height="24" viewBox="0 0 24 24" fill="none" xmlns="http://www.w3.org/2000/svg">
<path d="M21 14C21 13.4477 20.5523 13 20 13L8 13C6.34315 13 5 11.6569 5 10L5 6C5 5.44771 4.55228 5 4 5C3.44771 5 3 5.44771 3 6L3 10C3 12.7614 5.23858 15 8 15L20 15C20.5523 15 21 14.5523 21 14Z" fill="#CED4DA"/>
<path d="M20.7071 14.7071C21.0976 14.3166 21.0976 13.6834 20.7071 13.2929L16.7071 9.29289C16.3166 8.90237 15.6834 8.90237 15.2929 9.29289C14.9024 9.68342 14.9024 10.3166 15.2929 10.7071L18.5858 14L15.2929 17.2929C14.9024 17.6834 14.9024 18.3166 15.2929 18.7071C15.6834 19.0976 16.3166 19.0976 16.7071 18.7071L20.7071 14.7071Z" fill="#CED4DA"/>
</svg>
